<?xml version="1.0" standalone="no"?>
<!DOCTYPE svg PUBLIC "-//W3C//DTD SVG 20010904//EN"
 "http://www.w3.org/TR/2001/REC-SVG-20010904/DTD/svg10.dtd">
<svg version="1.0" xmlns="http://www.w3.org/2000/svg"
 width="512.000000pt" height="512.000000pt" viewBox="0 0 512.000000 512.000000"
 preserveAspectRatio="xMidYMid meet">
<metadata>
Created by potrace 1.16, written by Peter Selinger 2001-2019
</metadata>
<g transform="translate(0.000000,512.000000) scale(0.100000,-0.100000)"
fill="#000000" stroke="none">
<path d="M2344 5101 c-50 -23 -90 -63 -115 -116 -18 -38 -19 -81 -19 -945 l0
-904 -392 391 c-216 215 -409 399 -428 409 -46 25 -172 26 -215 2 -78 -42
-128 -123 -129 -208 0 -111 -17 -92 542 -652 l517 -518 -517 -517 c-559 -562
-542 -541 -542 -654 2 -172 190 -282 348 -203 17 9 208 192 424 407 l392 391
0 -904 c0 -864 1 -907 19 -945 42 -88 116 -135 216 -135 38 0 75 7 100 19 48
22 1375 1125 1457 1211 47 49 58 68 67 112 15 69 0 143 -39 195 -15 21 -294
259 -618 528 -325 270 -591 492 -591 495 0 3 266 226 591 495 324 270 603 507
619 528 38 52 53 128 38 196 -9 43 -21 63 -67 112 -82 85 -1409 1188 -1457
1210 -53 25 -147 25 -201 0z m731 -1052 c212 -176 385 -324 384 -327 0 -4
-147 -128 -326 -277 -179 -148 -354 -294 -389 -323 l-64 -54 0 651 c0 358 2
651 5 651 3 0 178 -144 390 -321z m58 -2374 c179 -148 326 -273 326 -277 1 -7
-765 -648 -774 -648 -3 0 -5 293 -5 651 l0 651 64 -54 c35 -29 210 -174 389
-323z"/>
</g>
</svg>
