<?xml version="1.0" standalone="no"?>
<!DOCTYPE svg PUBLIC "-//W3C//DTD SVG 20010904//EN"
 "http://www.w3.org/TR/2001/REC-SVG-20010904/DTD/svg10.dtd">
<svg version="1.0" xmlns="http://www.w3.org/2000/svg"
 width="512.000000pt" height="512.000000pt" viewBox="0 0 512.000000 512.000000"
 preserveAspectRatio="xMidYMid meet">
<metadata>
Created by potrace 1.16, written by Peter Selinger 2001-2019
</metadata>
<g transform="translate(0.000000,512.000000) scale(0.100000,-0.100000)"
fill="#000000" stroke="none">
<path d="M1638 4686 c-57 -20 -85 -42 -116 -88 l-27 -42 -3 -658 -2 -658 -478
398 c-396 330 -486 400 -524 411 -91 26 -188 -9 -242 -87 -24 -34 -31 -55 -34
-107 -8 -120 -35 -93 659 -671 l619 -516 0 -108 0 -108 -619 -516 c-694 -578
-667 -551 -659 -671 5 -79 41 -137 108 -175 56 -31 147 -34 200 -7 19 9 245
193 502 407 l467 390 3 -659 3 -659 30 -44 c44 -61 105 -93 180 -92 36 0 74 7
95 17 50 25 1340 1102 1370 1144 19 27 25 51 28 103 7 123 16 113 -461 511
-232 193 -422 355 -422 359 0 4 190 166 422 359 477 398 468 388 461 511 -3
52 -9 76 -28 103 -14 19 -324 284 -690 589 -680 566 -697 579 -776 578 -16 -1
-46 -7 -66 -14z m637 -964 c182 -151 338 -283 349 -292 18 -17 6 -28 -310
-292 -181 -151 -335 -278 -342 -282 -8 -5 -21 -1 -33 10 -18 17 -19 36 -19
581 0 449 3 563 13 557 6 -5 161 -132 342 -282z m36 -1738 c275 -230 329 -278
318 -289 -8 -7 -169 -142 -359 -300 l-345 -288 -3 563 c-2 518 -1 565 15 582
9 10 23 16 30 14 7 -3 162 -130 344 -282z"/>
<path d="M4205 3931 c-77 -35 -125 -111 -125 -195 0 -59 10 -84 79 -191 123
-190 217 -417 260 -627 95 -459 2 -937 -260 -1343 -69 -107 -79 -132 -79 -191
0 -164 172 -264 321 -186 42 22 63 42 106 107 208 308 335 656 374 1024 17
160 7 463 -20 611 -61 335 -192 653 -377 911 -65 89 -185 124 -279 80z"/>
<path d="M3529 3423 c-35 -19 -64 -43 -84 -71 -27 -39 -30 -51 -30 -120 0 -76
1 -78 56 -169 102 -166 143 -312 143 -503 0 -191 -41 -337 -143 -503 -55 -91
-56 -93 -56 -169 0 -69 3 -81 30 -120 35 -50 120 -98 174 -98 119 0 188 64
291 269 158 316 187 714 75 1057 -54 166 -155 349 -225 407 -63 53 -150 60
-231 20z"/>
</g>
</svg>
