<?xml version="1.0" ?><svg viewBox="0 0 32 32" xmlns="http://www.w3.org/2000/svg"><defs><style>.cls-1{fill:#101820;}</style></defs><title/><g data-name="Layer 32" id="Layer_32"><path class="cls-1" d="M16,31a5,5,0,0,1-5-5,1,1,0,0,1,2,0,3,3,0,0,0,.88,2.12,3.06,3.06,0,0,0,4.24,0,1,1,0,0,1,1.42,1.42A5,5,0,0,1,16,31Z"/><path class="cls-1" d="M16,6a1,1,0,0,1-1-1V2a1,1,0,0,1,2,0V5A1,1,0,0,1,16,6Z"/><rect class="cls-1" height="36.77" transform="translate(-6.61 16.79) rotate(-47)" width="2" x="15" y="-2.38"/><path class="cls-1" d="M26.73,27H5a1,1,0,0,1-.89-1.45,18.08,18.08,0,0,0,1.89-8V14a8,8,0,0,1,.06-1,1,1,0,1,1,2,.28A6,6,0,0,0,8,14v3.53A20.07,20.07,0,0,1,6.55,25H26.73a1,1,0,1,1,0,2Z"/><path class="cls-1" d="M25.06,20a1,1,0,0,1-1-.92Q24,18.31,24,17.53V14A8,8,0,0,0,11.93,7.12,7.66,7.66,0,0,0,9.35,9.57a1,1,0,1,1-1.68-1.1A9.74,9.74,0,0,1,10.92,5.4,9.95,9.95,0,0,1,23.07,6.94,9.86,9.86,0,0,1,26,14v3.53c0,.46,0,.91.06,1.37A1,1,0,0,1,25.14,20Z"/></g></svg>