<?xml version="1.0" standalone="no"?>
<!DOCTYPE svg PUBLIC "-//W3C//DTD SVG 20010904//EN"
 "http://www.w3.org/TR/2001/REC-SVG-20010904/DTD/svg10.dtd">
<svg version="1.0" xmlns="http://www.w3.org/2000/svg"
 width="512.000000pt" height="512.000000pt" viewBox="0 0 512.000000 512.000000"
 preserveAspectRatio="xMidYMid meet">
<metadata>
Created by potrace 1.16, written by Peter Selinger 2001-2019
</metadata>
<g transform="translate(0.000000,512.000000) scale(0.100000,-0.100000)"
fill="#000000" stroke="none">
<path d="M2414 4810 c-105 -21 -121 -35 -782 -691 l-635 -628 -386 -3 c-370
-3 -388 -4 -432 -24 -65 -30 -123 -86 -153 -147 l-26 -51 0 -706 0 -706 26
-51 c30 -61 88 -117 153 -147 44 -20 62 -21 436 -24 l390 -3 635 -633 c595
-593 639 -634 700 -661 200 -87 381 22 420 255 8 46 10 639 8 2025 -3 1882 -4
1962 -22 2008 -23 60 -105 150 -154 170 -50 20 -128 27 -178 17z m109 -228 c9
-9 20 -37 26 -62 14 -60 15 -3800 1 -3885 -17 -102 -61 -135 -132 -99 -39 19
-1353 1326 -1374 1366 -21 40 -21 1276 0 1316 20 37 1323 1335 1366 1361 43
26 91 27 113 3z m-1698 -2022 l0 -711 -277 3 -278 3 -27 28 -28 27 0 649 c0
635 0 649 20 671 11 12 29 26 40 31 11 4 139 8 285 8 l265 1 0 -710z"/>
<path d="M3895 4415 c-17 -9 -36 -25 -43 -36 -16 -26 -18 -89 -3 -116 6 -11
54 -45 108 -76 342 -194 597 -463 769 -812 256 -522 256 -1109 0 -1630 -172
-348 -415 -607 -762 -808 -91 -53 -111 -69 -120 -96 -22 -66 13 -132 77 -146
82 -18 391 186 604 400 239 239 395 491 500 809 78 234 87 293 92 612 4 250 3
293 -16 400 -99 584 -445 1096 -955 1413 -81 50 -184 101 -206 101 -8 0 -29
-7 -45 -15z"/>
<path d="M3521 3866 c-32 -18 -50 -53 -51 -99 0 -47 19 -66 148 -148 109 -70
242 -194 323 -302 367 -494 325 -1185 -99 -1629 -81 -85 -202 -181 -290 -230
-87 -50 -107 -132 -46 -189 42 -40 103 -33 189 20 365 227 613 590 691 1011
24 130 24 390 1 520 -68 368 -269 698 -566 925 -160 121 -240 154 -300 121z"/>
<path d="M3088 3225 c-36 -20 -48 -44 -48 -97 0 -55 31 -88 107 -112 69 -23
160 -83 207 -137 89 -102 136 -259 116 -386 -13 -81 -63 -192 -114 -250 -47
-54 -142 -117 -208 -138 -79 -26 -108 -57 -108 -117 0 -83 57 -121 148 -98
166 41 345 189 427 350 52 104 70 186 69 325 0 113 -4 141 -27 210 -35 106
-89 195 -162 269 -135 137 -331 224 -407 181z"/>
</g>
</svg>
