<?xml version="1.0" standalone="no"?>
<!DOCTYPE svg PUBLIC "-//W3C//DTD SVG 20010904//EN"
 "http://www.w3.org/TR/2001/REC-SVG-20010904/DTD/svg10.dtd">
<svg version="1.0" xmlns="http://www.w3.org/2000/svg"
 width="512.000000pt" height="512.000000pt" viewBox="0 0 512.000000 512.000000"
 preserveAspectRatio="xMidYMid meet">
<metadata>
Created by potrace 1.16, written by Peter Selinger 2001-2019
</metadata>
<g transform="translate(0.000000,512.000000) scale(0.100000,-0.100000)"
fill="#000000" stroke="none">
<path d="M2414 4810 c-105 -21 -121 -35 -782 -691 l-635 -628 -386 -3 c-370
-3 -388 -4 -432 -24 -65 -30 -123 -86 -153 -147 l-26 -51 0 -706 0 -706 26
-51 c30 -61 88 -117 153 -147 44 -20 62 -21 436 -24 l390 -3 635 -633 c595
-593 639 -634 700 -661 200 -87 381 22 420 255 8 46 10 639 8 2025 -3 1882 -4
1962 -22 2008 -23 60 -105 150 -154 170 -50 20 -128 27 -178 17z m109 -228 c9
-9 20 -37 26 -62 14 -60 15 -3800 1 -3885 -17 -102 -61 -135 -132 -99 -39 19
-1353 1326 -1374 1366 -21 40 -21 1276 0 1316 20 37 1323 1335 1366 1361 43
26 91 27 113 3z m-1698 -2022 l0 -711 -277 3 -278 3 -27 28 -28 27 0 649 c0
635 0 649 20 671 11 12 29 26 40 31 11 4 139 8 285 8 l265 1 0 -710z"/>
<path d="M3203 3145 c-33 -33 -35 -39 -30 -82 5 -44 12 -52 233 -274 l229
-229 -229 -229 c-221 -222 -228 -230 -233 -274 -5 -43 -3 -49 30 -82 37 -37
78 -45 120 -24 12 6 122 111 245 232 l222 222 230 -230 230 -230 49 0 c38 0
55 5 75 24 28 27 42 76 31 113 -4 12 -109 125 -233 251 l-226 227 226 228
c124 125 229 238 233 250 11 37 -3 86 -31 113 -20 19 -37 24 -75 24 l-49 0
-230 -230 -230 -230 -222 222 c-123 121 -233 226 -245 232 -42 21 -83 13 -120
-24z"/>
</g>
</svg>
